<?xml version="1.0" standalone="no"?>
<!DOCTYPE svg PUBLIC "-//W3C//DTD SVG 20010904//EN"
 "http://www.w3.org/TR/2001/REC-SVG-20010904/DTD/svg10.dtd">
<svg version="1.0" xmlns="http://www.w3.org/2000/svg"
 width="512.000000pt" height="512.000000pt" viewBox="0 0 512.000000 512.000000"
 preserveAspectRatio="xMidYMid meet">
<metadata>
Created by potrace 1.16, written by Peter Selinger 2001-2019
</metadata>
<g transform="translate(0.000000,512.000000) scale(0.100000,-0.100000)"
fill="#fff" stroke="none">
<path d="M2225 5114 c-219 -32 -557 -131 -740 -218 -288 -137 -519 -299 -741
-520 -140 -141 -184 -193 -311 -372 -48 -68 -205 -351 -238 -429 -37 -88 -128
-388 -157 -515 -30 -131 -31 -144 -35 -447 -6 -406 8 -509 122 -863 62 -195
81 -239 177 -413 122 -224 237 -383 399 -551 232 -241 485 -422 795 -568 121
-56 397 -144 568 -181 l151 -32 345 0 345 0 151 32 c172 37 437 121 564 180
449 208 811 517 1086 928 46 69 183 318 215 391 42 98 137 413 165 549 29 139
29 143 29 485 l-1 345 -31 140 c-32 144 -124 441 -163 530 -42 94 -184 350
-233 419 -127 178 -171 231 -311 372 -331 330 -700 543 -1151 665 -264 72
-270 72 -635 75 -184 1 -348 0 -365 -2z m390 -343 c43 -20 714 -642 752 -696
12 -18 25 -44 28 -58 6 -23 10 -25 32 -16 53 20 119 6 479 -96 579 -166 562
-160 613 -212 48 -51 80 -113 81 -157 0 -47 -229 -956 -251 -996 -19 -34 -20
-39 -6 -66 8 -16 70 -249 137 -519 135 -536 142 -583 100 -665 -35 -69 -63
-82 -395 -178 -721 -209 -733 -212 -824 -212 -139 0 -166 22 -291 240 -186
324 -205 355 -223 354 -9 0 -156 -1 -326 -2 -297 -2 -310 -3 -316 -21 -7 -24
-244 -438 -274 -480 -28 -38 -100 -73 -153 -73 -64 1 -1074 264 -1139 297 -59
31 -138 147 -139 204 0 14 22 113 50 220 27 108 77 309 111 446 65 265 81 308
127 347 l30 25 -34 27 c-49 39 -66 79 -118 281 -26 99 -79 295 -117 436 -38
140 -69 267 -69 281 0 47 41 135 80 173 41 40 86 54 740 239 276 78 287 80
339 62 41 -14 41 -13 41 10 0 14 7 41 15 62 22 51 685 717 740 743 51 24 129
24 180 0z"/>
<path d="M2263 4068 l-262 -263 22 -31 c12 -17 62 -103 112 -190 l89 -159 316
0 316 0 64 114 c36 63 86 150 113 194 26 44 47 81 47 83 0 3 -548 514 -552
514 -2 0 -121 -118 -265 -262z"/>
<path d="M3313 3438 l-110 -193 27 -40 c46 -67 287 -508 294 -538 5 -21 11
-27 22 -23 9 3 111 6 227 6 l212 0 94 380 c52 209 92 382 89 385 -10 10 -717
215 -740 215 -3 0 -54 -87 -115 -192z"/>
<path d="M1659 3596 c-4 -4 -235 -72 -604 -178 -77 -22 -141 -41 -142 -42 -3
-2 71 -287 142 -548 l48 -177 221 -3 c122 -2 229 -7 239 -12 14 -7 17 -3 17
23 0 18 6 47 14 65 17 41 225 402 268 465 30 44 30 44 11 70 -11 14 -59 97
-109 183 -84 149 -94 164 -105 154z"/>
<path d="M2840 3049 c-15 -6 -142 -9 -328 -7 -256 3 -302 1 -302 -11 0 -14
-105 -203 -234 -420 -33 -57 -71 -110 -83 -118 l-22 -15 28 -36 c43 -56 280
-493 287 -530 l7 -32 318 -2 c176 -1 327 -2 336 -2 9 -1 20 11 26 27 11 34
285 509 311 539 16 18 17 24 6 42 -59 94 -296 524 -305 554 -7 24 -9 25 -45
11z"/>
<path d="M1323 2263 c-190 -3 -212 -5 -217 -21 -11 -34 -176 -695 -176 -703 0
-5 6 -9 14 -9 8 0 171 -43 361 -95 191 -52 354 -95 363 -95 11 0 47 53 104
153 48 84 98 162 111 175 l24 23 -45 47 c-30 31 -89 126 -174 282 -70 129
-128 238 -128 242 0 4 -6 7 -12 6 -7 -2 -108 -4 -225 -5z"/>
<path d="M3500 2221 c-12 -24 -60 -110 -107 -190 -47 -80 -110 -187 -140 -238
l-54 -92 113 -196 112 -196 35 6 c34 6 478 132 639 181 45 14 82 29 82 34 0
11 -179 723 -183 726 -1 2 -109 4 -239 6 l-236 3 -22 -44z"/>
</g>
</svg>
